# xmcd
#
# Track frame offsets:
#	150
#	12512
#	24220
#	37279
#	48054
#	61121
#	74496
#	86538
#	101372
#	114315
#	127625
#	140755
#	152009
#	164435
#	176753
#	190842
#	204607
#	215785
#	228433
#	237932
#	247557
#	260012
#	273316
#	287748
#
# Disc length: 3997 seconds
# Revision: 1
# Processed by: cddbd v1.5.2PL0 Copyright (c) Steve Scherf et al.
# Submitted via: dBpowerAMP V12.0
#
DISCID=4f0f9b18
DTITLE=Tom T. Hall - In Search of a Song and The Rhymer and Other Five and Dimers
DYEAR=2005
DGENRE=Country
TTITLE0=The Year That Clayton Delaney Died
TTITLE1=Who's Gonna Feed Them Hogs
TTITLE2=Trip to Hyden
TTITLE3=Tulsa Telephone Book
TTITLE4=It Sure Can Get Cold in Des Moines
TTITLE5=The Little Lady Preacher
TTITLE6=L.A. Blues
TTITLE7=Kentucky, February 27, 1971
TTITLE8=A Million Miles to the City
TTITLE9=Second Handed Flowers
TTITLE10=Ramona's Revenge
TTITLE11=Ravishing Ruby
TTITLE12=Don't Forget the Coffee Billy Joe
TTITLE13=Spokane Motel Blues
TTITLE14=Looking Forward to Seeing You Again
TTITLE15=I Flew Over Our House Last Night
TTITLE16=Another Town
TTITLE17=Too Many Do-Goods
TTITLE18=A Song for Uncle Curt
TTITLE19=The Man Who Hated Freckles
TTITLE20=Candy in the Window
TTITLE21=Old Five and Dimers Like Me
TTITLE22=Hello, We're Lonely
TTITLE23=We're Not Getting Old
EXTD=
EXTT0=
EXTT1=
EXTT2=
EXTT3=
EXTT4=
EXTT5=
EXTT6=
EXTT7=
EXTT8=
EXTT9=
EXTT10=
EXTT11=
EXTT12=
EXTT13=
EXTT14=
EXTT15=
EXTT16=
EXTT17=
EXTT18=
EXTT19=
EXTT20=
EXTT21=
EXTT22=
EXTT23=
PLAYORDER=
